<svg width="10" height="9" viewBox="0 0 10 9" fill="none" xmlns="http://www.w3.org/2000/svg">
    <g clip-path="url(#clip0_4650_8885)">
        <path d="M3.80642 8.5C3.50221 8.5 3.21408 8.38399 3.02945 8.18397L0.530694 5.486C0.45344 5.40268 0.39704 5.30774 0.364717 5.20659C0.332394 5.10545 0.324784 5.00009 0.34232 4.89654C0.359857 4.79299 0.402196 4.69329 0.466918 4.60312C0.53164 4.51295 0.617476 4.43409 0.719518 4.37104C0.821523 4.30774 0.937814 4.2615 1.06173 4.23499C1.18564 4.20848 1.31474 4.20221 1.44162 4.21654C1.5685 4.23088 1.69067 4.26553 1.80114 4.31852C1.9116 4.37151 2.00818 4.4418 2.08534 4.52534L3.7295 6.29922L7.86332 0.874717C8.00042 0.695615 8.21885 0.568258 8.4707 0.520583C8.72255 0.472909 8.98726 0.508808 9.20677 0.620408C9.66344 0.852429 9.804 1.3439 9.51867 1.71765L4.63445 8.12397C4.55107 8.23382 4.43615 8.32538 4.29965 8.39071C4.16316 8.45604 4.00921 8.49316 3.85118 8.49886C3.8358 8.5 3.82181 8.5 3.80642 8.5Z"
              fill="#181059"/>
    </g>
    <defs>
        <clipPath id="clip0_4650_8885">
            <rect width="9.92" height="8.32" fill="white" transform="translate(0.0397949 0.339844)"/>
        </clipPath>
    </defs>
</svg>
