<svg width="21" height="21" viewBox="0 0 21 21" fill="none" xmlns="http://www.w3.org/2000/svg">
<path d="M20.4927 10.7394C20.494 10.0592 20.4351 9.38016 20.3166 8.70996H10.708V12.5555H16.2106C16.0978 13.1699 15.8592 13.7556 15.5092 14.2771C15.1592 14.7986 14.7051 15.2453 14.1742 15.59V18.0853H17.4569C18.4593 17.1374 19.2474 15.9937 19.7704 14.7283C20.2933 13.4629 20.5394 12.1039 20.4927 10.7394Z" fill="#4285F4"/>
<path d="M10.6864 20.4962C13.1684 20.5647 15.5835 19.7025 17.4394 18.0856L14.1567 15.5903C13.3662 16.0863 12.4707 16.3992 11.5384 16.5054C10.6061 16.6115 9.66131 16.508 8.77586 16.2028C7.8904 15.8976 7.08751 15.3987 6.42813 14.7439C5.76875 14.0891 5.27021 13.2957 4.97035 12.4238H1.58301V14.9958C2.43135 16.6495 3.73184 18.0396 5.33934 19.0109C6.94683 19.9822 8.79807 20.4964 10.6864 20.4962Z" fill="#34A853"/>
<path d="M4.96723 12.4148C4.54047 11.1746 4.54047 9.83143 4.96723 8.59122V6.0166H1.58328C0.870946 7.40811 0.5 8.94347 0.5 10.5003C0.5 12.0572 0.870946 13.5926 1.58328 14.9841L4.96723 12.4148Z" fill="#FBBC04"/>
<path d="M10.6993 4.45424C12.1536 4.43101 13.559 4.96857 14.6129 5.95116L17.5257 3.09995C15.6779 1.40258 13.2322 0.471227 10.7 0.500678C8.80903 0.499685 6.95501 1.01405 5.34504 1.98632C3.73507 2.95858 2.43256 4.35046 1.58301 6.00647L4.97171 8.57842C5.36725 7.39064 6.13238 6.35412 7.15966 5.61443C8.18694 4.87473 9.42477 4.46901 10.6993 4.45424Z" fill="#EA4335"/>
</svg>
