<svg width="10" height="9" viewBox="0 0 10 9" fill="none" xmlns="http://www.w3.org/2000/svg">
<path d="M6.06058 4.49935L9.02933 1.5306C9.17023 1.38995 9.24948 1.19909 9.24966 1.00001C9.24983 0.800929 9.17092 0.609932 9.03027 0.469035C8.88962 0.328139 8.69876 0.248886 8.49968 0.24871C8.3006 0.248534 8.1096 0.32745 7.96871 0.468098L4.99996 3.43685L2.03121 0.468098C1.89031 0.327202 1.69922 0.248047 1.49996 0.248047C1.3007 0.248047 1.1096 0.327202 0.968708 0.468098C0.827812 0.608994 0.748657 0.800091 0.748657 0.999348C0.748657 1.19861 0.827812 1.3897 0.968708 1.5306L3.93746 4.49935L0.968708 7.4681C0.827812 7.60899 0.748657 7.80009 0.748657 7.99935C0.748657 8.19861 0.827812 8.3897 0.968708 8.5306C1.1096 8.67149 1.3007 8.75065 1.49996 8.75065C1.69922 8.75065 1.89031 8.67149 2.03121 8.5306L4.99996 5.56185L7.96871 8.5306C8.1096 8.67149 8.3007 8.75065 8.49996 8.75065C8.69922 8.75065 8.89031 8.67149 9.03121 8.5306C9.1721 8.3897 9.25126 8.19861 9.25126 7.99935C9.25126 7.80009 9.1721 7.60899 9.03121 7.4681L6.06058 4.49935Z" fill="#A8A1DD"/>
</svg>
