<svg width="1881" height="638" viewBox="0 0 1881 638" fill="none" xmlns="http://www.w3.org/2000/svg">
    <path d="M1758.14 229.291C1741.88 212.627 1715.57 212.465 1699.12 228.925C1699.07 228.961 1699.05 229.014 1699 229.048L1637.89 290.167C1626.95 301.105 1614.77 310.748 1601.61 318.838C1571.83 337.306 1536.82 347.921 1499.46 347.921C1462.1 347.921 1427.09 337.306 1397.31 318.838C1369.62 301.798 1346.27 277.893 1329.64 249.525C1311.62 219.015 1301.25 183.24 1301.25 144.883C1301.25 64.8632 1237.94 0.00585938 1159.82 0.00585938C1081.71 0.00585938 1018.39 64.8608 1018.39 144.883C1018.39 183.243 1008.03 219.017 990 249.525C973.365 277.893 950.029 301.801 922.333 318.838C892.549 337.306 857.54 347.921 820.18 347.921C782.82 347.921 747.811 337.306 718.029 318.838C690.334 301.798 666.995 277.893 650.363 249.525C632.334 219.015 621.972 183.24 621.972 144.883C621.972 64.8632 558.659 0.00585938 480.54 0.00585938C402.424 0.00585938 339.107 64.8608 339.107 144.883C339.107 144.89 339.112 144.89 339.112 144.89C339.107 183.252 328.746 219.025 310.718 249.525C301.97 264.449 291.367 278.134 279.249 290.239L221.496 347.923L221.494 347.933C205.433 364.792 205.593 391.743 221.854 408.397C238.115 425.062 264.433 425.221 280.889 408.761C280.931 408.725 280.953 408.672 280.995 408.638L342.115 347.519C353.056 336.581 365.23 326.941 378.387 318.838C408.172 300.373 443.185 289.758 480.54 289.758C517.901 289.758 552.911 300.373 582.694 318.838C610.387 335.878 633.728 359.786 650.36 388.154C668.386 418.664 678.749 454.438 678.749 492.796C678.749 572.816 742.061 637.673 820.18 637.673C898.299 637.673 961.613 572.818 961.613 492.796C961.613 454.436 971.976 418.661 990.002 388.154C1006.64 359.786 1029.98 335.876 1057.67 318.838C1087.45 300.373 1122.46 289.758 1159.82 289.758C1197.18 289.758 1232.19 300.373 1261.98 318.838C1289.67 335.878 1313.01 359.786 1329.64 388.154C1347.67 418.664 1358.03 454.438 1358.03 492.796C1358.03 572.816 1421.34 637.673 1499.46 637.673C1577.58 637.673 1640.89 572.818 1640.89 492.796C1640.89 454.436 1651.26 418.661 1669.28 388.154C1678.03 373.239 1688.63 359.552 1700.76 347.447L1758.5 289.755H1758.51C1774.57 272.894 1774.41 245.943 1758.15 229.291H1758.14ZM95.2712 442.073C42.7189 442.073 0.132385 485.707 0.132385 539.535C0.132385 593.365 42.7189 636.989 95.2712 636.989C147.821 636.989 190.412 593.365 190.412 539.535C190.412 485.707 147.821 442.073 95.2712 442.073ZM1884.72 0.701516C1832.17 0.701516 1789.58 44.3257 1789.58 98.1537C1789.58 151.984 1832.17 195.615 1884.72 195.615C1937.27 195.615 1979.86 151.984 1979.86 98.1537C1979.86 44.3257 1937.27 0.701516 1884.72 0.701516Z"
          fill="rgba(242, 239, 249, 0.13)"/>
</svg>
