<svg width="204.39" height="21.84" viewBox="0 0 204.39 21.84" xmlns="http://www.w3.org/2000/svg"><g id="svgGroup" stroke-linecap="round" fill-rule="evenodd" font-size="9pt" stroke="#ff0000" stroke-width="0.25mm" fill="#ff0000" style="stroke:#ff0000;stroke-width:0.25mm;fill:#ff0000"><path d="M 147.78 21.84 L 139.14 0.42 L 141.33 0.42 L 148.68 18.78 L 148.86 18.78 L 153.66 6.9 L 151.05 0.42 L 153.24 0.42 L 160.56 18.72 L 160.74 18.72 L 166.8 0.42 L 168.99 0.42 L 160.35 21.84 L 159.69 21.84 L 154.08 7.89 L 148.44 21.84 L 147.78 21.84 Z M 18.06 0.42 L 20.22 0.42 L 20.22 21.42 L 18.18 21.42 L 18.18 2.16 L 18 2.16 L 10.74 16.08 L 9.81 16.08 L 1.56 3.81 L 1.38 3.81 L 2.04 21.42 L 0 21.42 L 0.75 0 L 1.35 0 L 10.8 14.04 L 10.98 14.04 L 18.06 0.42 Z M 98.43 21.42 L 98.43 0.42 L 102.45 0.42 A 12.279 12.279 0 0 1 104.298 0.55 Q 105.297 0.703 106.106 1.033 A 5.597 5.597 0 0 1 107.385 1.755 A 4.309 4.309 0 0 1 109.113 4.907 A 6.055 6.055 0 0 1 109.14 5.49 A 5.193 5.193 0 0 1 108.934 6.985 A 4.167 4.167 0 0 1 108.045 8.58 Q 107.014 9.738 105.118 10.178 A 8.742 8.742 0 0 1 104.88 10.23 L 104.88 10.41 Q 106.86 10.8 108.12 12.27 A 8.913 8.913 0 0 1 109.502 14.497 A 11.404 11.404 0 0 1 110.01 15.9 A 30.122 30.122 0 0 0 110.365 17.051 Q 110.753 18.222 111.135 18.975 A 6.373 6.373 0 0 0 111.521 19.641 Q 111.738 19.964 111.97 20.205 A 2.804 2.804 0 0 0 112.365 20.55 A 4.102 4.102 0 0 0 113.361 21.064 A 5.158 5.158 0 0 0 113.97 21.24 L 113.97 21.42 L 112.74 21.42 A 5.967 5.967 0 0 1 111.818 21.353 Q 111.1 21.24 110.565 20.94 A 3.132 3.132 0 0 1 109.754 20.273 Q 109.473 19.955 109.231 19.539 A 5.903 5.903 0 0 1 109.11 19.32 Q 108.51 18.18 107.97 16.17 A 16.086 16.086 0 0 0 107.436 14.574 Q 106.695 12.717 105.66 11.79 A 5.021 5.021 0 0 0 102.406 10.505 A 6.46 6.46 0 0 0 102.15 10.5 L 101.97 10.5 L 101.97 9.96 L 102.15 9.96 Q 106.249 9.96 106.869 6.763 A 6.529 6.529 0 0 0 106.98 5.52 Q 106.98 2.027 104.098 1.319 A 6.932 6.932 0 0 0 102.45 1.14 L 100.47 1.14 L 100.47 21.42 L 98.43 21.42 Z M 92.13 21.42 L 82.89 21.42 L 82.89 0.42 L 92.04 0.42 L 92.04 1.89 L 86.79 1.2 A 49.798 49.798 0 0 0 86.229 1.13 Q 85.467 1.039 85.079 1.023 A 3.673 3.673 0 0 0 84.93 1.02 L 84.93 10.17 A 6.687 6.687 0 0 0 85.114 10.167 Q 85.558 10.154 86.606 10.091 A 168.949 168.949 0 0 0 86.79 10.08 L 91.71 9.78 L 91.71 11.16 L 86.79 10.86 A 146.704 146.704 0 0 0 86.277 10.829 Q 85.328 10.775 84.985 10.77 A 4.36 4.36 0 0 0 84.93 10.77 L 84.93 20.82 A 5.393 5.393 0 0 0 85.249 20.809 Q 85.781 20.777 86.728 20.652 A 50.386 50.386 0 0 0 86.82 20.64 L 92.13 19.95 L 92.13 21.42 Z M 45.93 20.76 L 46.11 18.96 L 46.29 18.96 Q 47.46 19.98 48.93 20.55 A 8.376 8.376 0 0 0 50.914 21.062 A 7.4 7.4 0 0 0 51.84 21.12 A 6.021 6.021 0 0 0 53.288 20.955 A 4.272 4.272 0 0 0 55.14 19.995 Q 56.4 18.87 56.4 16.98 Q 56.4 15.93 55.935 15.03 A 4.825 4.825 0 0 0 55.436 14.265 Q 55.163 13.919 54.805 13.568 A 9.723 9.723 0 0 0 54.405 13.2 Q 53.34 12.27 51.48 11.19 Q 50.19 10.44 49.02 9.615 A 7.834 7.834 0 0 1 47.501 8.226 A 7.115 7.115 0 0 1 47.1 7.695 A 4.257 4.257 0 0 1 46.406 5.874 A 5.588 5.588 0 0 1 46.35 5.07 A 5.1 5.1 0 0 1 46.655 3.274 A 4.496 4.496 0 0 1 48 1.395 A 5.698 5.698 0 0 1 50.401 0.213 Q 51.295 0 52.35 0 A 12.946 12.946 0 0 1 53.838 0.09 A 16.395 16.395 0 0 1 54.93 0.255 Q 56.263 0.501 57.008 0.873 A 3.587 3.587 0 0 1 57.06 0.9 L 56.91 2.58 L 56.73 2.58 A 5.636 5.636 0 0 0 52.619 0.725 A 7.462 7.462 0 0 0 52.35 0.72 Q 50.62 0.72 49.499 1.512 A 3.767 3.767 0 0 0 49.26 1.695 Q 48.09 2.67 48.09 4.32 A 3.922 3.922 0 0 0 48.241 5.431 A 3.246 3.246 0 0 0 48.735 6.435 A 6.46 6.46 0 0 0 49.799 7.567 A 7.894 7.894 0 0 0 50.4 8.025 A 27.701 27.701 0 0 0 52.157 9.141 A 31.252 31.252 0 0 0 52.59 9.39 Q 53.94 10.17 55.215 11.04 Q 56.49 11.91 57.315 13.125 A 4.611 4.611 0 0 1 57.993 14.735 Q 58.131 15.357 58.139 16.074 A 8.011 8.011 0 0 1 58.14 16.17 A 6.127 6.127 0 0 1 57.926 17.818 A 5.121 5.121 0 0 1 57.36 19.125 A 5.296 5.296 0 0 1 55.331 21.028 A 6.364 6.364 0 0 1 55.155 21.12 A 6.597 6.597 0 0 1 53.192 21.739 A 8.694 8.694 0 0 1 51.84 21.84 A 11.828 11.828 0 0 1 50.796 21.79 Q 50.236 21.741 49.607 21.641 A 22.936 22.936 0 0 1 49.02 21.54 A 24.346 24.346 0 0 1 46.3 20.877 A 22.208 22.208 0 0 1 45.93 20.76 Z M 115.86 20.76 L 116.04 18.96 L 116.22 18.96 Q 117.39 19.98 118.86 20.55 A 8.376 8.376 0 0 0 120.844 21.062 A 7.4 7.4 0 0 0 121.77 21.12 A 6.021 6.021 0 0 0 123.218 20.955 A 4.272 4.272 0 0 0 125.07 19.995 Q 126.33 18.87 126.33 16.98 Q 126.33 15.93 125.865 15.03 A 4.825 4.825 0 0 0 125.366 14.265 Q 125.093 13.919 124.735 13.568 A 9.723 9.723 0 0 0 124.335 13.2 Q 123.27 12.27 121.41 11.19 Q 120.12 10.44 118.95 9.615 A 7.834 7.834 0 0 1 117.431 8.226 A 7.115 7.115 0 0 1 117.03 7.695 A 4.257 4.257 0 0 1 116.336 5.874 A 5.588 5.588 0 0 1 116.28 5.07 A 5.1 5.1 0 0 1 116.585 3.274 A 4.496 4.496 0 0 1 117.93 1.395 A 5.698 5.698 0 0 1 120.331 0.213 Q 121.225 0 122.28 0 A 12.946 12.946 0 0 1 123.768 0.09 A 16.395 16.395 0 0 1 124.86 0.255 Q 126.193 0.501 126.938 0.873 A 3.587 3.587 0 0 1 126.99 0.9 L 126.84 2.58 L 126.66 2.58 A 5.636 5.636 0 0 0 122.549 0.725 A 7.462 7.462 0 0 0 122.28 0.72 Q 120.55 0.72 119.429 1.512 A 3.767 3.767 0 0 0 119.19 1.695 Q 118.02 2.67 118.02 4.32 A 3.922 3.922 0 0 0 118.171 5.431 A 3.246 3.246 0 0 0 118.665 6.435 A 6.46 6.46 0 0 0 119.729 7.567 A 7.894 7.894 0 0 0 120.33 8.025 A 27.701 27.701 0 0 0 122.087 9.141 A 31.252 31.252 0 0 0 122.52 9.39 Q 123.87 10.17 125.145 11.04 Q 126.42 11.91 127.245 13.125 A 4.611 4.611 0 0 1 127.923 14.735 Q 128.061 15.357 128.069 16.074 A 8.011 8.011 0 0 1 128.07 16.17 A 6.127 6.127 0 0 1 127.856 17.818 A 5.121 5.121 0 0 1 127.29 19.125 A 5.296 5.296 0 0 1 125.261 21.028 A 6.364 6.364 0 0 1 125.085 21.12 A 6.597 6.597 0 0 1 123.122 21.739 A 8.694 8.694 0 0 1 121.77 21.84 A 11.828 11.828 0 0 1 120.726 21.79 Q 120.166 21.741 119.537 21.641 A 22.936 22.936 0 0 1 118.95 21.54 A 24.346 24.346 0 0 1 116.23 20.877 A 22.208 22.208 0 0 1 115.86 20.76 Z M 70.29 21.42 L 68.25 21.42 L 68.25 1.02 A 4.192 4.192 0 0 0 68.007 1.029 Q 67.612 1.052 66.874 1.14 A 58.316 58.316 0 0 0 66.39 1.2 L 60.51 1.95 L 60.51 0.42 L 78.03 0.42 L 78.03 1.95 L 72.15 1.2 A 56.032 56.032 0 0 0 71.579 1.13 Q 70.642 1.02 70.29 1.02 L 70.29 21.42 Z M 27.09 21.42 L 24.9 21.42 L 32.97 0.42 L 34.83 0.42 L 42.9 21.42 L 40.71 21.42 L 36.99 11.58 L 30.18 11.58 L 27.09 21.42 Z M 171.69 21.42 L 169.5 21.42 L 177.57 0.42 L 179.43 0.42 L 187.5 21.42 L 185.31 21.42 L 181.59 11.58 L 174.78 11.58 L 171.69 21.42 Z M 197.22 21.42 L 195.06 21.42 L 195.06 12.54 L 187.62 0.42 L 189.9 0.42 L 196.59 11.4 L 196.77 11.4 L 202.11 0.42 L 204.39 0.42 L 197.22 12.12 L 197.22 21.42 Z M 33.36 1.98 L 33.18 1.98 L 30.39 10.86 L 36.72 10.86 L 33.36 1.98 Z M 177.96 1.98 L 177.78 1.98 L 174.99 10.86 L 181.32 10.86 L 177.96 1.98 Z" vector-effect="non-scaling-stroke"/></g></svg>