<svg width="120" height="55" viewBox="0 0 120 55" fill="none" xmlns="http://www.w3.org/2000/svg">
<g clip-path="url(#clip0_1268_35358)">
<path d="M9.91959 45.22V54.9862H8.95098V47.1735L5.1985 53.7442H4.72109L0.968749 47.2151V54.9863H0V45.2202H0.832306L4.98047 52.4614L9.08728 45.2202H9.91959V45.22ZM19.8813 51.5402L17.5891 46.2944L15.2969 51.5402L14.9282 52.3772L13.7822 54.9862H12.7315L17.0978 45.22H18.0937L22.46 54.9862H21.3956L20.2495 52.3772L19.8811 51.5402H19.8813ZM26.1156 54.7207C25.4651 54.4884 24.9628 54.1814 24.6077 53.8002L25.0037 53.0047C25.3492 53.3585 25.8086 53.6445 26.3815 53.8633C26.9547 54.0818 27.5458 54.1905 28.1553 54.1905C29.0102 54.1905 29.6517 54.0307 30.0793 53.7092C30.5067 53.3888 30.7206 52.9724 30.7206 52.4613C30.7206 52.0708 30.6044 51.7591 30.3723 51.5263C30.1407 51.294 29.8561 51.1147 29.5197 50.9887C29.1829 50.8637 28.7148 50.7264 28.1142 50.5777C27.3957 50.3914 26.8227 50.2125 26.3949 50.0402C25.9672 49.8684 25.6014 49.6055 25.2965 49.2522C24.9918 48.8985 24.8396 48.4195 24.8396 47.8152C24.8396 47.322 24.9668 46.8728 25.2215 46.4688C25.476 46.0638 25.8671 45.7406 26.3947 45.4988C26.9223 45.2575 27.5771 45.1363 28.3598 45.1363C28.9056 45.1363 29.4397 45.2128 29.963 45.3662C30.4858 45.5203 30.9384 45.732 31.3206 46.0013L30.9795 46.8241C30.5794 46.5548 30.152 46.3524 29.6971 46.2177C29.242 46.0824 28.7964 46.0151 28.3599 46.0151C27.5228 46.0151 26.8929 46.1805 26.4701 46.5101C26.0472 46.8403 25.8354 47.2658 25.8354 47.7872C25.8354 48.1775 25.9514 48.4916 26.1837 48.7286C26.4155 48.9662 26.7066 49.1477 27.0568 49.2726C27.407 49.3987 27.8777 49.5355 28.4691 49.6841C29.1692 49.8613 29.7355 50.0357 30.1678 50.2076C30.5999 50.3794 30.9659 50.6405 31.2662 50.9886C31.5662 51.3381 31.7165 51.8094 31.7165 52.4051C31.7165 52.8983 31.5868 53.3465 31.3276 53.7515C31.0682 54.1561 30.6701 54.4765 30.1337 54.714C29.5969 54.951 28.9373 55.0696 28.155 55.0696C27.4455 55.0696 26.7654 54.9538 26.1153 54.7205L26.1156 54.7207ZM37.2549 46.1129H33.8986V45.2199H41.6211V46.1129H38.2647V54.986H37.2549V46.1129ZM51.2077 54.0936V54.986H44.4535V45.2199H51.0029V46.1129H45.4631V49.5868H50.4024V50.4663H45.4631V54.0936H51.2078H51.2077ZM58.1639 51.0065C59.0093 50.9768 59.6637 50.7646 60.1271 50.3683C60.627 49.9406 60.8777 49.3407 60.8777 48.5683C60.8777 47.7782 60.627 47.1706 60.1271 46.7478C59.6268 46.3251 58.9035 46.1129 57.9575 46.1129H55.4198V54.986H54.41V45.2199H57.985C59.2039 45.2199 60.1588 45.5178 60.8504 46.1129C61.5415 46.7086 61.8871 47.5272 61.8871 48.5683C61.8871 49.3316 61.6985 49.9757 61.3213 50.5003C60.9431 51.0265 60.4047 51.4057 59.7042 51.6379L62.0378 54.9862H60.9321L58.1641 51.0066L58.1639 51.0065ZM70.7825 54.7207C70.1314 54.4884 69.6294 54.1814 69.2738 53.8002L69.6699 53.0047C70.0155 53.3585 70.4747 53.6445 71.0479 53.8633C71.6209 54.0818 72.2125 54.1905 72.8214 54.1905C73.6768 54.1905 74.3184 54.0307 74.7459 53.7092C75.1726 53.3888 75.3865 52.9724 75.3865 52.4613C75.3865 52.0708 75.2707 51.7591 75.0389 51.5263C74.8065 51.294 74.5225 51.1147 74.1859 50.9887C73.8494 50.8637 73.3812 50.7264 72.7806 50.5777C72.0617 50.3914 71.4885 50.2125 71.0612 50.0402C70.6336 49.8684 70.2682 49.6055 69.9624 49.2522C69.658 48.8985 69.5058 48.4195 69.5058 47.8152C69.5058 47.322 69.6333 46.8728 69.8877 46.4688C70.1419 46.0638 70.5339 45.7406 71.0611 45.4988C71.589 45.2575 72.2436 45.1363 73.0259 45.1363C73.5717 45.1363 74.1058 45.2128 74.6294 45.3662C75.1524 45.5203 75.6048 45.732 75.9867 46.0013L75.6459 46.8241C75.2455 46.5548 74.818 46.3524 74.3629 46.2177C73.9082 46.0824 73.4626 46.0151 73.0259 46.0151C72.1889 46.0151 71.5588 46.1805 71.1364 46.5101C70.713 46.8403 70.5017 47.2658 70.5017 47.7872C70.5017 48.1775 70.6181 48.4916 70.8493 48.7286C71.0817 48.9662 71.3724 49.1477 71.7227 49.2726C72.0731 49.3987 72.5439 49.5355 73.1349 49.6841C73.8354 49.8613 74.4018 50.0357 74.8336 50.2076C75.2655 50.3794 75.6317 50.6405 75.932 50.9886C76.2323 51.3381 76.383 51.8094 76.383 52.4051C76.383 52.8983 76.2533 53.3465 75.9937 53.7515C75.7349 54.1561 75.3362 54.4765 74.8001 54.714C74.2633 54.951 73.6032 55.0696 72.8211 55.0696C72.1116 55.0696 71.4315 54.9538 70.7821 54.7205L70.7825 54.7207ZM98.8277 45.22L95.7029 54.9862H93.329L91.2277 48.3734L89.0581 54.9862H86.6978L83.5596 45.22H85.852L88.008 52.0842L90.2593 45.22H92.3056L94.489 52.1398L96.7129 45.22H98.8278H98.8277ZM106.451 51.1774L104.937 47.4384L103.422 51.1774L102.713 52.8932L101.866 54.9862H99.6018L103.858 45.22H106.042L110.312 54.9862H107.992L107.147 52.8932L106.45 51.1774H106.451ZM116.288 51.5264V54.9862H114.079V51.4982L110.381 45.22H112.728L115.279 49.5594L117.831 45.22H120L116.289 51.5264H116.288ZM67.0678 46.6295C67.0678 45.8512 66.4504 45.22 65.6893 45.22C64.9281 45.22 64.3114 45.8512 64.3114 46.6295C64.3114 47.4079 64.9282 48.0385 65.6893 48.0385C66.4504 48.0385 67.0678 47.4078 67.0678 46.6295Z" fill="#784DEA"/>
<path d="M106.46 13.843C105.477 12.837 103.885 12.8272 102.89 13.821C102.887 13.8231 102.886 13.8263 102.883 13.8284L99.1867 17.5183C98.525 18.1787 97.7887 18.7609 96.9928 19.2493C95.1913 20.3642 93.0737 21.0051 90.8141 21.0051C88.5544 21.0051 86.4369 20.3642 84.6355 19.2493C82.9605 18.2205 81.5488 16.7773 80.5428 15.0647C79.4525 13.2227 78.8257 11.0628 78.8257 8.74707C78.8257 3.91601 74.9963 0.000366211 70.2714 0.000366211C65.5466 0.000366211 61.7171 3.91587 61.7171 8.74707C61.7171 11.063 61.0903 13.2228 59.9999 15.0647C58.9938 16.7773 57.5823 18.2207 55.9072 19.2493C54.1057 20.3642 51.9883 21.0051 49.7286 21.0051C47.4689 21.0051 45.3514 20.3642 43.5501 19.2493C41.875 18.2205 40.4633 16.7773 39.4573 15.0647C38.3669 13.2227 37.7401 11.0628 37.7401 8.74707C37.7401 3.91601 33.9108 0.000366211 29.1858 0.000366211C24.4611 0.000366211 20.6314 3.91587 20.6314 8.74707C20.6314 8.7475 20.6317 8.7475 20.6317 8.7475C20.6314 11.0636 20.0048 13.2232 18.9143 15.0647C18.3852 15.9657 17.7439 16.7918 17.011 17.5227L13.5179 21.0053L13.5177 21.0058C12.5463 22.0237 12.5559 23.6508 13.5395 24.6563C14.523 25.6624 16.1148 25.672 17.1102 24.6782C17.1127 24.676 17.114 24.6728 17.1166 24.6708L20.8133 20.9809C21.4751 20.3205 22.2114 19.7385 23.0072 19.2493C24.8087 18.1345 26.9264 17.4936 29.1858 17.4936C31.4455 17.4936 33.5631 18.1345 35.3645 19.2493C37.0394 20.2781 38.4512 21.7214 39.4572 23.4341C40.5475 25.2761 41.1743 27.4359 41.1743 29.7517C41.1743 34.5827 45.0036 38.4984 49.7286 38.4984C54.4535 38.4984 58.283 34.5829 58.283 29.7517C58.283 27.4358 58.9098 25.2759 60.0001 23.4341C61.0062 21.7214 62.4178 20.2779 64.0928 19.2493C65.8943 18.1345 68.0119 17.4936 70.2714 17.4936C72.5311 17.4936 74.6487 18.1345 76.45 19.2493C78.125 20.2781 79.5367 21.7214 80.5426 23.4341C81.633 25.2761 82.2598 27.4359 82.2598 29.7517C82.2598 34.5827 86.0892 38.4984 90.8141 38.4984C95.5389 38.4984 99.3684 34.5829 99.3684 29.7517C99.3684 27.4358 99.9952 25.2759 101.086 23.4341C101.615 22.5337 102.256 21.7073 102.989 20.9765L106.482 17.4935H106.482C107.454 16.4755 107.444 14.8484 106.46 13.843H106.46ZM5.88327 26.6894C2.7047 26.6894 0.128906 29.3237 0.128906 32.5735C0.128906 35.8234 2.7047 38.4571 5.88327 38.4571C9.0617 38.4571 11.6378 35.8234 11.6378 32.5735C11.6378 29.3237 9.0617 26.6894 5.88327 26.6894ZM114.116 0.0423653C110.937 0.0423653 108.362 2.6761 108.362 5.92586C108.362 9.17578 110.937 11.8099 114.116 11.8099C117.294 11.8099 119.871 9.17578 119.871 5.92586C119.871 2.6761 117.294 0.0423653 114.116 0.0423653Z" fill="#784DEA"/>
</g>
<defs>
<clipPath id="clip0_1268_35358">
<rect width="120" height="55" fill="#784DEA"/>
</clipPath>
</defs>
</svg>
