<svg width="24" height="24" viewBox="0 0 24 24" fill="none" xmlns="http://www.w3.org/2000/svg">
<path d="M12.3994 11.6001L12.3994 8H11.5994V11.6001H8V12.4001H11.5994L11.5994 16H12.3994V12.4001H16V11.6001H12.3994Z" fill="#636363"/>
<path fill-rule="evenodd" clip-rule="evenodd" d="M14.4 0.8H9.6C7.90664 0.8 6.68474 0.800622 5.72436 0.879088C4.77332 0.956791 4.14941 1.10683 3.63925 1.36677C2.66081 1.86531 1.86531 2.66081 1.36677 3.63925C1.10683 4.14941 0.956791 4.77332 0.879088 5.72436C0.800622 6.68474 0.8 7.90664 0.8 9.6V14.4C0.8 16.0934 0.800622 17.3153 0.879088 18.2756C0.956791 19.2267 1.10683 19.8506 1.36677 20.3608C1.86531 21.3392 2.66081 22.1347 3.63925 22.6332C4.14941 22.8932 4.77332 23.0432 5.72436 23.1209C6.68474 23.1994 7.90664 23.2 9.6 23.2H14.4C16.0934 23.2 17.3153 23.1994 18.2756 23.1209C19.2267 23.0432 19.8506 22.8932 20.3608 22.6332C21.3392 22.1347 22.1347 21.3392 22.6332 20.3608C22.8932 19.8506 23.0432 19.2267 23.1209 18.2756C23.1994 17.3153 23.2 16.0934 23.2 14.4V9.6C23.2 7.90664 23.1994 6.68474 23.1209 5.72436C23.0432 4.77332 22.8932 4.14941 22.6332 3.63925C22.1347 2.66081 21.3392 1.86531 20.3608 1.36677C19.8506 1.10683 19.2267 0.956791 18.2756 0.879088C17.3153 0.800622 16.0934 0.8 14.4 0.8ZM0.653961 3.27606C0 4.55953 0 6.23969 0 9.6V14.4C0 17.7603 0 19.4405 0.653961 20.7239C1.2292 21.8529 2.14708 22.7708 3.27606 23.346C4.55953 24 6.23969 24 9.6 24H14.4C17.7603 24 19.4405 24 20.7239 23.346C21.8529 22.7708 22.7708 21.8529 23.346 20.7239C24 19.4405 24 17.7603 24 14.4V9.6C24 6.23969 24 4.55953 23.346 3.27606C22.7708 2.14708 21.8529 1.2292 20.7239 0.653961C19.4405 0 17.7603 0 14.4 0H9.6C6.23969 0 4.55953 0 3.27606 0.653961C2.14708 1.2292 1.2292 2.14708 0.653961 3.27606Z" fill="#636363"/>
</svg>
