<svg width="24" height="24" viewBox="0 0 24 24" fill="none" xmlns="http://www.w3.org/2000/svg">
<path fill-rule="evenodd" clip-rule="evenodd" d="M14.4 1.2H9.6C7.90004 1.2 6.69724 1.20093 5.75693 1.27776C4.83063 1.35344 4.26522 1.49675 3.82085 1.72317C2.91767 2.18336 2.18336 2.91767 1.72317 3.82085C1.49675 4.26522 1.35344 4.83063 1.27776 5.75693C1.20093 6.69724 1.2 7.90004 1.2 9.6V14.4C1.2 16.1 1.20093 17.3028 1.27776 18.2431C1.35344 19.1694 1.49675 19.7348 1.72317 20.1792C2.18336 21.0823 2.91767 21.8166 3.82085 22.2768C4.26522 22.5033 4.83063 22.6466 5.75693 22.7222C6.69724 22.7991 7.90004 22.8 9.6 22.8H14.4C16.1 22.8 17.3028 22.7991 18.2431 22.7222C19.1694 22.6466 19.7348 22.5033 20.1792 22.2768C21.0823 21.8166 21.8166 21.0823 22.2768 20.1792C22.5033 19.7348 22.6466 19.1694 22.7222 18.2431C22.7991 17.3028 22.8 16.1 22.8 14.4V9.6C22.8 7.90004 22.7991 6.69724 22.7222 5.75693C22.6466 4.83063 22.5033 4.26522 22.2768 3.82085C21.8166 2.91767 21.0823 2.18336 20.1792 1.72317C19.7348 1.49675 19.1694 1.35344 18.2431 1.27776C17.3028 1.20093 16.1 1.2 14.4 1.2ZM0.653961 3.27606C0 4.55953 0 6.23969 0 9.6V14.4C0 17.7603 0 19.4405 0.653961 20.7239C1.2292 21.8529 2.14708 22.7708 3.27606 23.346C4.55953 24 6.23969 24 9.6 24H14.4C17.7603 24 19.4405 24 20.7239 23.346C21.8529 22.7708 22.7708 21.8529 23.346 20.7239C24 19.4405 24 17.7603 24 14.4V9.6C24 6.23969 24 4.55953 23.346 3.27606C22.7708 2.14708 21.8529 1.2292 20.7239 0.653961C19.4405 0 17.7603 0 14.4 0H9.6C6.23969 0 4.55953 0 3.27606 0.653961C2.14708 1.2292 1.2292 2.14708 0.653961 3.27606Z" fill="#636363"/>
<path d="M12.5995 11.4V7.5H11.3995L11.3995 11.4H7.5V12.6H11.3995L11.3995 16.5H12.5995V12.6H16.5V11.4H12.5995Z" fill="#636363"/>
</svg>
